<?xml version="1.0" standalone="no"?>
<!DOCTYPE svg PUBLIC "-//W3C//DTD SVG 1.1//EN" "http://www.w3.org/Graphics/SVG/1.1/DTD/svg11.dtd">
<svg xmlns="http://www.w3.org/2000/svg" width="1000" height="500" viewBox="0 0 1000 500"><path fill="#fefdfd" d="M0 0h1000v500H0z"/><path fill="#1d2c42" d="m53.313 243.375 2.787.023c6.608.215 11.795 1.343 17.517 4.84 5.197 3.843 8.995 7.356 11.82 13.262C87.78 268.22 87.96 274.988 87 282c-2.443 7.29-7.084 12.76-12.61 17.984-3.583 3.021-7.38 5.598-11.39 8.016 1.318 2.863 2.78 5.1 4.863 7.46.558.638 1.115 1.275 1.69 1.93l1.76 1.985 3.425 3.898 1.67 1.894a213 213 0 0 1 4.385 5.247C82.735 333.03 82.735 333.03 85 334c.489-1.79.965-3.581 1.438-5.375l.808-3.023c.937-4.475 1.3-9.053 1.754-13.602h22c.379 11.49-.496 21.389-5.812 31.698a245 245 0 0 1-2.958 5.306L101 352c.944 3.633 3.817 6.394 6.188 9.25l2.414 2.914c2.68 3.17 5.407 6.29 8.183 9.375L119 375v1q-6.27.222-12.543.33-2.131.044-4.262.123c-4.445.158-8.783.224-13.195-.453-2.737-1.799-3.465-3.038-5-6-3.793.607-6.811 1.743-10.25 3.438C63.122 378.308 52.594 379.03 41 378c-7.328-1.348-13.896-3.831-19.934-8.234-4.815-4.115-9.371-8.679-12.003-14.516C6.765 348.223 6.165 341.356 7 334c2.556-8.184 7.342-14.06 13.52-19.863A88 88 0 0 1 30 307l-1.39-2.09c-10.162-15.561-10.162-15.561-10.731-24.894-.19-6.456.332-12.52 3.308-18.336 3.79-6.077 8.427-11.227 14.718-14.745 5.841-2.89 10.932-3.64 17.408-3.56M442.355 279.738c4.237 2.021 7.972 4.342 11.645 7.262.615.478 1.23.956 1.863 1.45 6.25 5.5 10.137 13.625 12.77 21.426 1.506 5.332 1.678 10.484 1.617 15.999l-.023 2.686c-.099 6.01-.355 11.685-2.227 17.439l-.93 2.906c-3.214 8.779-8.17 14.771-15.125 20.906C445.47 374.7 437.863 376.585 430 378c-8.64.875-16.828-.03-25-3-7.077-3.297-13.185-7.829-18-14-5.084-8.347-8.985-17.513-9.398-27.367q-.02-2.754.023-5.508l.03-2.925c.236-10.81 2.308-19.432 7.825-28.802 4.622-7.294 10.102-11.182 17.52-15.398 11.513-6.008 27.367-5.936 39.355-1.262M445.355 105.738c4.237 2.021 7.972 4.342 11.645 7.262.615.478 1.23.956 1.863 1.45 6.25 5.5 10.137 13.625 12.77 21.426 1.506 5.332 1.678 10.484 1.617 15.999l-.023 2.686c-.099 6.01-.355 11.685-2.227 17.439l-.93 2.906c-3.214 8.779-8.17 14.771-15.125 20.906C448.47 200.7 440.863 202.585 433 204c-8.64.875-16.828-.03-25-3-7.077-3.297-13.185-7.829-18-14-5.084-8.347-8.985-17.513-9.398-27.367q-.02-2.754.023-5.508l.03-2.925c.236-10.81 2.308-19.432 7.825-28.802 4.622-7.294 10.102-11.182 17.52-15.398 11.513-6.008 27.367-5.936 39.355-1.262M315.375 243.75l3.29-.023c10.964.026 19.313 2.101 29.022 7.293 5.575 3.333 9.553 7.009 12.868 12.605C364.43 271.158 365 274.875 365 284h-27l-2-10c-2.501-3.458-4.673-4.828-8.437-6.812-6.008-1.984-12.333-1.834-18.563-1.188-3.127.852-5.484 1.958-8 4-2.623 2.684-2.623 2.684-4 6-.667 3.5-.667 3.5 0 7 1.447 3.015 2.882 5.11 5.515 7.205 6.263 4.107 13.043 6.253 20.11 8.608 13.51 4.645 25.651 9.255 35.602 19.945 3.224 4.077 5.13 8.31 6.773 13.242.823 7.473 1.028 15.43-1.059 22.676-2.57 5.482-5.759 10.06-10.554 13.797-10.047 6.429-19.829 9.147-31.614 9.777-12.387.448-23.443-1.312-34.648-7-6.58-3.944-12.016-7.964-16.203-14.488-4.222-7.633-5.084-12.54-5.922-21.762h27l3 11c1.613 2.807 2.942 4.315 5.64 6.061 4.568 2.492 8.274 3.433 13.475 3.437l2.447-.06 2.46.021c5.39-.057 9.19-.967 13.978-3.459 2.65-1.832 2.65-1.832 4-5 .604-4.106.623-7.895 0-12-1.986-3.263-4.075-4.447-7.3-6.375-6.288-3.415-12.749-5.732-19.512-8-11.71-3.959-23.245-8.737-32.317-17.414-3.876-4.58-7.018-9.877-8.512-15.715-.994-6.908-.986-13.74 1.547-20.308 3.15-6.3 7.412-10.946 13.094-15.063 3.904-2.557 7.61-4.551 12-6.125l2.934-1.059c5.377-1.51 10.9-1.23 16.441-1.191M488 64h26l1 50 8-7c7.208-3.85 13.225-4.633 21.379-4.379 6.169.646 10.808 2.402 15.867 5.957 4.472 3.644 7.33 7.2 9.754 12.422 1.679 5.01 2.245 9.314 2.227 14.588v2.19a1169 1169 0 0 1-.032 7.093l-.008 4.947q-.014 6.483-.05 12.966c-.02 4.418-.03 8.835-.04 13.253-.02 8.654-.056 17.309-.097 25.963h-26l-.028-6.239c-.034-6.813-.09-13.626-.156-20.44-.04-4.13-.072-8.259-.087-12.388-.015-3.988-.05-7.976-.097-11.963a496 496 0 0 1-.024-4.557c-.002-2.133-.03-4.265-.062-6.398l-.027-3.674c-.623-4.009-2.001-6.195-4.519-9.341-4.275-2.383-8.396-2.466-13.203-2.395-3.743.528-6.192 1.94-9.238 4.106-1.684 1.351-1.684 1.351-3.559 3.289-.333 3.036-.333 3.036-.319 6.653l-.03 2.07c-.031 2.261-.048 4.523-.065 6.785q-.028 2.35-.059 4.7c-.051 4.126-.09 8.252-.128 12.379-.04 4.21-.091 8.418-.141 12.628-.097 8.261-.18 16.523-.258 24.785h-26zM541.625 278.625c6.166 2.472 11.775 5.353 16.156 10.445 4.102 5.772 6.832 11.857 7.507 18.96.12 3.494.153 6.978.153 10.474l.04 3.872q.05 5.063.072 10.126.032 7.129.101 14.258.037 3.785.044 7.569c.055 6.277.571 11.646 2.302 17.671v4h-26c-2-4-2-4-2-8l-1.398 1.172c-5.145 4.107-10.16 7.247-16.602 8.828-7.956.906-15.122.374-22.531-2.742-4.732-2.411-8.732-5.003-12-9.246-2.8-4.322-5.212-8.623-5.77-13.809-.026-6.522.22-12.347 3.301-18.203 3.96-5.784 8.764-9.852 15-13 9.052-4.217 18.18-4.142 28-4.062l3.215.013q3.893.018 7.785.049c-.23-2.065-.485-4.127-.75-6.187l-.422-3.481c-.65-3.394-.65-3.394-2.656-6.133-2.08-2.106-3.4-3.24-6.172-4.199-3.382-.48-6.612-.423-10 0-3.518 1.373-3.518 1.373-6 4l-3 7h-26c.963-7.701 1.862-11.855 6.398-17.848 4.839-5.37 10.949-8.496 17.602-11.152 10.616-3.197 22.967-3.663 33.625-.375M647.625 104.625c6.166 2.472 11.775 5.353 16.156 10.445 4.102 5.772 6.832 11.857 7.507 18.96.12 3.494.153 6.978.153 10.474l.04 3.872q.05 5.063.072 10.126.032 7.129.101 14.258.037 3.784.044 7.569c.055 6.277.571 11.646 2.302 17.671v4h-26c-2-4-2-4-2-8l-1.398 1.172c-5.145 4.107-10.16 7.247-16.602 8.828-7.956.906-15.122.374-22.531-2.742-4.732-2.411-8.732-5.003-12-9.246-2.8-4.322-5.212-8.623-5.77-13.809-.026-6.522.22-12.347 3.301-18.203 3.96-5.784 8.764-9.852 15-13 9.052-4.217 18.18-4.142 28-4.062l3.215.013q3.893.018 7.785.049c-.23-2.065-.485-4.127-.75-6.187l-.422-3.481c-.65-3.394-.65-3.394-2.656-6.133-2.08-2.106-3.4-3.24-6.172-4.199-3.382-.48-6.612-.423-10 0-3.518 1.373-3.518 1.373-6 4l-3 7h-26c.963-7.701 1.862-11.855 6.398-17.848 4.839-5.37 10.949-8.496 17.602-11.152 10.616-3.197 22.967-3.663 33.625-.375M690.938 276.75l2.145.025c9.823.21 17.473 3.205 25.917 8.225 5.701 4.12 8.797 9.537 11.71 15.855 4.946 12.063 4.29 21.28 4.29 35.145h-62c2.965 10.485 2.965 10.485 7.938 15.063 2.856 2.323 5.548 3.816 9.062 4.937 6.35.716 12.417.566 18.438-1.687 4.131-1.881 7.275-4.2 10.562-7.313 3.787 1.55 6.065 3.883 8.813 6.875l2.457 2.617L732 359c0 2.074 0 2.074-1 4-4.95 5.913-10.91 9.242-18.008 11.992-10.197 3.435-20.04 4.32-30.637 2.32-8.93-2.542-16.623-6.608-23.543-12.812-5.252-5.52-9.57-13.413-11.381-20.831-.84-5.206-.7-10.47-.744-15.731l-.087-3.53c-.07-9.514 1.845-17.219 6.04-25.74 5.025-7.744 10.202-13.183 18.423-17.48 6.488-3.164 12.667-4.54 19.875-4.438M857.484 103.883c4.771 1.792 8.627 3.757 12.078 7.555 3.978 5.412 6.159 10.981 7.438 17.562.163 2.532.236 5.072.227 7.61v2.16c0 2.327-.016 4.653-.032 6.98l-.008 4.876q-.014 6.381-.05 12.763c-.02 4.351-.03 8.702-.04 13.052-.02 8.52-.056 17.04-.097 25.559h-26l-.028-6.239c-.034-6.813-.09-13.626-.156-20.44-.04-4.13-.072-8.259-.087-12.388-.015-3.988-.05-7.976-.097-11.963a496 496 0 0 1-.024-4.557c-.002-2.133-.03-4.265-.062-6.398l-.027-3.674c-.623-4.009-2.001-6.195-4.519-9.341-3.395-1.892-6.453-2.343-10.312-2.437-3.064.05-5.279.265-8.11 1.453-3.401 2.06-5.343 3.632-7.578 6.984-.33 3.095-.33 3.095-.319 6.675l-.03 2.04c-.031 2.224-.048 4.448-.065 6.672l-.059 4.628c-.051 4.059-.09 8.118-.128 12.177-.04 4.142-.091 8.285-.141 12.427-.097 8.127-.18 16.254-.258 24.381h-26v-97h25l1 10 1.617-1.61c4.445-4.213 8.623-7.738 14.457-9.761 7.478-1.607 15.002-1.623 22.41.254M754.484 103.883c4.771 1.792 8.627 3.757 12.078 7.555 3.978 5.412 6.159 10.981 7.438 17.562.163 2.532.236 5.072.227 7.61v2.16c0 2.327-.016 4.653-.032 6.98l-.008 4.876q-.014 6.381-.05 12.763c-.02 4.351-.03 8.702-.04 13.052-.02 8.52-.056 17.04-.097 25.559h-26l-.028-6.239c-.034-6.813-.09-13.626-.156-20.44-.04-4.13-.072-8.259-.087-12.388-.015-3.988-.05-7.976-.097-11.963a496 496 0 0 1-.024-4.557c-.002-2.133-.03-4.265-.062-6.398l-.027-3.674c-.623-4.009-2.001-6.195-4.519-9.341-3.395-1.892-6.453-2.343-10.312-2.437-3.064.05-5.279.265-8.11 1.453-3.401 2.06-5.343 3.632-7.578 6.984-.33 3.095-.33 3.095-.319 6.675l-.03 2.04c-.031 2.224-.048 4.448-.065 6.672l-.059 4.628c-.051 4.059-.09 8.118-.128 12.177-.04 4.142-.091 8.285-.141 12.427-.097 8.127-.18 16.254-.258 24.381h-26v-97h25l1 10 1.617-1.61c4.445-4.213 8.623-7.738 14.457-9.761 7.478-1.607 15.002-1.623 22.41.254M109 105h26l.044 6.04q.079 9.902.192 19.804c.044 4.001.084 8.002.11 12.002q.041 5.798.117 11.594.025 2.205.035 4.412c.01 2.068.037 4.135.07 6.203l.033 3.56c.48 4.079 1.528 6.733 3.399 10.385 2.758 2.085 4.918 2.855 8.332 3.313 4.495.22 8.025-.172 12.106-2.125 2.622-1.43 4.736-2.811 6.562-5.188.476-3.13.476-3.13.432-6.766l.031-2.07c.03-2.257.04-4.513.049-6.77l.054-4.695c.048-4.118.077-8.236.104-12.354.03-4.203.076-8.406.121-12.609.086-8.245.152-16.49.209-24.736h26v97h-24l-1-7h-2c-1.379.9-2.729 1.846-4.062 2.813-5.667 3.804-10.458 5.896-17.301 6.468-8.17.21-14.538-.595-21.75-4.394-4.482-2.861-6.812-6.059-9.262-10.762-4.783-10.02-4.897-19.342-4.82-30.219l.008-4.674q.014-6.116.05-12.23c.02-4.17.03-8.34.04-12.51.02-8.164.056-16.328.097-24.492M806.2 279.738c6.618 2.982 12.057 6.758 16.581 12.477 1.932 2.83 3.171 5.525 4.219 8.785v7h-26l-4-9c-5.102-2.551-9.058-2.47-14.691-2.371-3.481.161-3.481.161-6.684 2.371-1.477 2.727-2.004 4.076-2.25 7.063L774 310c2.12 2.247 4.077 3.668 6.998 4.719 2.343.658 4.694 1.231 7.064 1.781q2.565.639 5.125 1.285l2.504.626c8.665 2.212 17.27 4.876 24.309 10.589 2.83 3.418 5.02 7.04 7 11 .431 5.786.88 11.972-.754 17.594A37.3 37.3 0 0 1 823 363l-1.625 2.625c-5.325 5.325-12.131 8.732-19.312 10.852-9.484 2.406-19.838 2.494-29.375.336-5.398-1.537-10.038-3.68-14.688-6.813l-1.898-1.27c-4.594-3.48-7.226-7.78-10.036-12.753C745 353 745 353 745 345h24l4 9c2.616 2.678 2.616 2.678 6 4 2.856.388 5.228.564 8.063.5.694.015 1.388.03 2.103.047 2.353.027 2.353.027 5.834-.547 2.935-1.758 2.935-1.758 5-4 1.175-2.06 1.175-2.06 1.313-4.875L801 346c-1.909-2.294-3.564-3.78-6.234-5.125-5.56-1.934-11.106-3.468-16.828-4.812-9.55-2.285-17.08-5.641-24.313-12.364-2.466-2.578-4.124-5.075-5.176-8.484-1.21-5.967-1.256-12.721.676-18.527 2.322-5.169 5.583-9.001 10.137-12.352 14.01-8.93 31.296-10.262 46.937-4.598M13 71h28v109h57v22H13zM280 81h26v24h17v19h-17q.104 11.213.262 22.424.051 3.816.084 7.63c.034 3.654.086 7.308.142 10.962l.02 3.45.06 3.215.033 2.826c.26 2.563.26 2.563 1.716 4.787L310 181c3.416.703 3.416.703 7.188.75L324 182v20c-9.342 2.076-18.554 3.586-27.937.875-4.43-1.779-8.006-4.19-11.063-7.875-3.478-6.089-5.129-11.784-5.114-18.778v-3.518l.016-3.782.005-3.884q.006-5.1.024-10.2.014-5.208.02-10.416.016-10.211.049-20.422h-14v-19h14zM218 81h26v24h17v19h-17q.104 11.213.262 22.424.051 3.816.084 7.63c.034 3.654.086 7.308.142 10.962l.02 3.45.06 3.215.033 2.826c.26 2.563.26 2.563 1.716 4.787L248 181c3.416.703 3.416.703 7.188.75L262 182v20c-9.342 2.076-18.554 3.586-27.937.875-4.43-1.779-8.006-4.19-11.063-7.875-3.478-6.089-5.129-11.784-5.114-18.778v-3.518l.016-3.782.005-3.884q.006-5.1.024-10.2.014-5.208.02-10.416.016-10.211.049-20.422h-14v-19h14z"/><path fill="#1d2c42" d="M339 105h26q.07 20.694.104 41.387.014 9.609.047 19.219.032 9.278.039 18.557.004 3.534.021 7.07c.015 3.307.017 6.615.016 9.923l.022 2.934c-.027 8.954-1.567 16.662-5.765 24.613-2.989 4.626-6.868 7.34-11.546 10.11-5.937 2.4-11.884 2.343-18.188 2.312l-2.469.012c-6.028-.01-6.028-.01-8.281-1.137v-20l6.188-.187c4.566-.275 4.566-.275 8.753-1.887 2.144-2.13 3.106-4.067 4.059-6.926.1-1.46.146-2.922.158-4.385l.03-2.715.017-2.971.03-3.134q.046-5.137.081-10.275l.063-7.117q.082-9.373.153-18.747.077-9.56.161-19.123.161-18.766.307-37.533M632.625 276.875l2.914-.008C638 277 638 277 640 278v25c-9 .188-9 .188-11.785.208-4.576.171-7.83.818-11.778 3.218-2.183 1.477-3.252 2.204-4.437 4.574-.12 2.062-.177 4.128-.205 6.194l-.06 3.943q-.027 2.139-.051 4.277l-.063 4.363q-.083 5.745-.153 11.492-.077 5.861-.161 11.723-.161 11.505-.307 23.008h-26v-97h24l1 8h2l1.688-2.25c2.875-3.42 5.32-4.754 9.312-6.75 3.237-1.043 6.234-1.134 9.625-1.125"/><path fill="#fefdfd" d="M426.11 297.66c3.76.442 6.134 1.58 9.171 3.79 3.82 3.445 6.111 6.843 7.836 11.687 1.035 4.53 1.177 8.674 1.133 13.3l.023 2.448c-.02 6.13-.812 11.567-3.168 17.287-2.63 4.523-5.477 7.287-9.957 9.914-3.925 1.67-7.965 1.326-12.148.914-3.838-1.255-6.373-3.116-9.187-5.937-3.05-3.857-4.337-7.703-5.34-12.485-1.21-9.162-1.738-18.845 1.027-27.765 1.972-4.605 4.794-7.494 8.695-10.57 3.92-2.699 7.232-2.638 11.914-2.583M429.11 123.66c3.76.442 6.134 1.58 9.171 3.79 3.82 3.445 6.111 6.843 7.836 11.687 1.035 4.53 1.177 8.674 1.133 13.3l.023 2.448c-.02 6.13-.812 11.567-3.168 17.287-2.63 4.523-5.477 7.287-9.957 9.914-3.925 1.67-7.965 1.326-12.148.914-3.838-1.255-6.373-3.116-9.187-5.937-3.05-3.857-4.337-7.703-5.34-12.485-1.21-9.162-1.738-18.845 1.027-27.766 1.972-4.604 4.794-7.493 8.695-10.57 3.92-2.698 7.232-2.637 11.914-2.582M941 107c4.235 1.218 7.093 3.274 10.5 6 2.051 4.102 2.057 7.579 1.867 12.121C953 128 953 128 951.625 131.5c-3.792 3.611-7.572 5.228-12.625 6.5-4.893.745-9.089.624-13.812-.918-3.947-1.773-6.614-3.356-9.313-6.77-1.202-4.549-1.537-8.643-.875-13.312 1.444-3.25 2.798-5.033 5.555-7.25 6.235-3.854 13.368-3.567 20.445-2.75M941 250c4.302 1.196 7.093 3.252 10.5 6.063 1.982 3.882 1.994 7.034 1.82 11.347-.32 2.59-.32 2.59-1.508 5.527-2.581 2.938-5.303 5.309-8.812 7.063-2.931.178-5.817.278-8.75.313l-2.422.087c-4.273.046-6.46-.196-10.293-2.322-4.151-3.403-4.151-3.403-5.535-5.078-1.548-4.644-1.61-9.155-1-14 1.32-2.838 2.541-3.862 5-6 6.764-4.052 13.323-3.74 21-3"/><path fill="#622d3c" d="m933.75 319.688 2.133-.088c3.972-.048 5.903.282 9.488 2.255 3.247 2.65 5.749 5.385 7.629 9.145v16h-38v-16c5.585-8.377 8.942-11.18 18.75-11.312M941 144c4.16 1.604 6.958 3.857 9.938 7.125C954.716 157.792 953 161.881 953 171h-38c0-15 0-15 1.5-19.125 6.95-7.992 13.998-9.415 24.5-7.875"/><path fill="#fefdfd" d="M42 322h2c1.393 1.552 2.714 3.17 4 4.813a213 213 0 0 0 10.188 11.875C62.097 342.932 65.676 347.285 69 352l-1.898.84-2.477 1.098-2.46 1.09Q60.06 355.97 58 357c-5.007.432-10.132.666-14.875-1.187-4.122-2.391-6.977-4.9-9.437-9-1.062-4.345-1.356-8.377-.688-12.813a31.95 31.95 0 0 1 9-12M530 331.75l2.637.055c2.121.046 4.242.118 6.363.195.135 2.73.234 5.455.313 8.188l.126 2.33c.049 2.259.003 4.264-.439 6.482-3.024 3.839-6.366 6.237-10.754 8.27-4.106 1.335-8.002 1.44-12.246.73-3.214-1.607-5.17-2.943-7.375-5.75-.963-3.468-1.158-6.713-.625-10.25 1.5-3.25 1.5-3.25 4-6 5.82-4.02 11.086-4.526 18-4.25M636 157.75l2.637.055c2.121.046 4.242.118 6.363.195.135 2.73.234 5.455.313 8.188l.126 2.33c.049 2.259.003 4.264-.439 6.482-3.024 3.839-6.366 6.237-10.754 8.27-4.106 1.335-8.002 1.44-12.246.73-3.214-1.607-5.17-2.943-7.375-5.75-.963-3.468-1.158-6.713-.625-10.25 1.5-3.25 1.5-3.25 4-6 5.82-4.02 11.086-4.526 18-4.25"/><path fill="#622d3c" d="M863.117 349.648c2.883.352 2.883.352 6.446 2.04 2.58 2.448 4.114 4.003 5.437 7.312.587 3.146.665 5.861 0 9-2.092 3.69-4.729 6.21-8.312 8.438-3.966.83-7.662 1.137-11.688.562-3.363-1.681-5.404-3.325-7.875-6.125-1.684-4.302-1.673-8.315-1.125-12.875 1.188-2.937 1.188-2.937 3-5 4.747-3.39 8.423-3.505 14.117-3.352"/><path fill="#1d2c42" d="M355 66c3.73 1.363 5.65 2.613 8.313 5.563 2.037 2.943 2.652 4.078 3 7.687C366 83 366 83 364.25 86.25c-1.988 2.43-3.592 4.121-6.25 5.75-4.07 1.357-7.744 1.524-12 1-3.363-1.681-5.404-3.325-7.875-6.125-1.405-3.59-1.663-6.594-1.543-10.434.44-2.571 1.015-3.898 2.606-5.941 4.88-4.339 9.32-5.316 15.812-4.5"/><path fill="#fefdfd" d="M694.242 297.79c2.758.21 2.758.21 6.133 1.335 3.27 2.336 5.253 4.623 7.625 7.875 1 3 1 3 1 11h-35c0-7 0-7 .918-9.293 5.365-8.006 9.678-11.044 19.324-10.918"/><path fill="#622d3c" d="M953 177v5l-10 3 1 16 9 3v6c-12.765-4.417-25.397-9.142-38-14v-5c7.344-3.383 14.832-6.344 22.375-9.25l3.559-1.39 3.402-1.313 3.08-1.193C950 177 950 177 953 177M953 352v5l-9 4-1 16 10 3v5c-4.722-.617-8.925-1.948-13.332-3.687l-2.052-.796q-2.13-.828-4.258-1.664-3.268-1.282-6.544-2.548l-4.146-1.618-1.982-.77c-4.57-1.8-4.57-1.8-5.686-2.917a100 100 0 0 1 0-5q7.875-2.994 15.753-5.981l5.363-2.038q3.846-1.461 7.693-2.918l2.436-.928C951.886 352 951.886 352 953 352"/><path fill="#fefdfd" d="M50.488 264.629c7.462-.176 7.462-.176 10.532 1.422 2.128 1.755 3.742 3.473 4.98 5.949.362 4.347.438 6.998-1.312 11-3.511 4.655-8.925 7.764-13.688 11-1.828-.719-1.828-.719-4-2-2.796-3.826-4.691-8.018-5.422-12.707-.117-3.918.154-6.68 1.734-10.293 2.152-2.55 3.84-3.874 7.176-4.371"/><path fill="#622d3c" d="M934 214c12.386-.695 12.386-.695 16.043.879 1.702 1.672 2.288 2.816 2.957 5.121.541 4.409.66 8.602 0 13-2.037 4.063-4.222 6.452-8 9-4.68 2.229-9.214 2.36-14.316 2.25-3.92-.365-6.262-1.265-9.684-3.25-4.51-4.02-4.51-4.02-6-7-.492-4.693-1.006-9.68.906-14.09 1.219-1.597 1.219-1.597 4.094-3.91 3.313-.875 3.313-.875 6-1v5l-2.437.875L921 222c-1.282 2.563-1.316 5.008-1.523 7.832.436 2.415.436 2.415 2.515 4.898 2.659 2.327 2.659 2.327 4.932 2.715 2.213.156 4.36.14 6.576.055l2.262.008c3.589-.064 5.92-.357 9.207-1.914 2.132-1.44 2.132-1.44 3.031-3.594.096-1.664.13-3.333.125-5l.008-2.687c.018-2.34.018-2.34-1.133-4.313-2.126-.467-2.126-.467-4.562-.625L938 219v9h-4z"/><path fill="#fefdfd" d="M929.145 324.7c1.21-.005 2.42-.009 3.668-.012l3.644-.051c3.856.395 6.243 1.368 9.543 3.363 1.875 2.125 1.875 2.125 3 5v9h-30c0-9 0-9 1.813-12.437 2.676-3.136 4.18-4.467 8.332-4.864"/><path fill="#622d3c" d="M941 250c4.302 1.196 7.093 3.252 10.5 6.063 1.982 3.882 1.994 7.034 1.82 11.347-.32 2.59-.32 2.59-1.508 5.527-2.581 2.938-5.303 5.309-8.812 7.063-2.931.178-5.817.278-8.75.313l-2.422.087c-4.273.046-6.46-.196-10.293-2.322-4.151-3.403-4.151-3.403-5.535-5.078-1.548-4.644-1.61-9.155-1-14 1.32-2.838 2.541-3.862 5-6 6.764-4.052 13.323-3.74 21-3m-18 7c-2.417 1.583-2.417 1.583-4 4-.583 3.458-.583 3.458 0 7 1.12 2.839 1.12 2.839 3 5 2.584 1.751 4.302 2.026 7.46 2.3 1.293.005 2.584.009 3.915.012l3.898.051c3.978-.387 6.362-1.243 9.727-3.363 2.293-2.944 2.293-2.944 2.438-6.875.013-2.114.013-2.114-.438-4.125-2.167-3.002-2.167-3.002-5-5-3.316-1.105-5.885-1.168-9.375-1.187l-3.398-.043c-3.213.229-5.353.82-8.227 2.23"/><path fill="#fefdfd" d="M941 149c2.836.986 3.82 1.82 6 4 2 4 2 4 2 13h-30c0-9 0-9 1.75-12.437 5.408-6.16 12.556-5.295 20.25-4.563"/><path fill="#1d2c42" d="M176 68c3.539 1.318 5.672 2.68 8.375 5.313C186 76 186 76 186.5 78.937 186 82 186 82 184.313 85.188c-2.393 2.91-3.84 4.392-7.313 5.813-3.036.337-5.08.52-8 0-3.104-1.61-5.217-3.003-7.375-5.75-.959-3.452-1.199-6.73-.625-10.25 1.687-2.771 3.203-4.423 5.813-6.312 3.214-1.01 5.834-.977 9.187-.688"/><path fill="#622d3c" d="M941 107c4.235 1.218 7.093 3.274 10.5 6 2.051 4.102 2.057 7.579 1.867 12.121C953 128 953 128 951.625 131.5c-3.792 3.611-7.572 5.228-12.625 6.5-4.893.745-9.089.624-13.812-.918-3.947-1.773-6.614-3.356-9.313-6.77-1.202-4.549-1.537-8.643-.875-13.312 1.444-3.25 2.798-5.033 5.555-7.25 6.235-3.854 13.368-3.567 20.445-2.75m-17.687 6.875A141 141 0 0 0 919 118c-.348 3.693-.286 6.301 1.125 9.75 1.81 2.359 1.81 2.359 4.375 4.063 4.913 1.666 9.361 1.739 14.5 1.187 3.517-.878 6.18-2.285 8.938-4.687 1.274-2.775 1.657-5.292 1.554-8.344-.366-2.029-.366-2.029-1.734-3.563-2.45-2.096-4.703-3.388-7.758-4.406-8.702-.908-8.702-.908-16.687 1.875"/><path fill="#1d2c42" d="M131.008 67.715c3.166.453 5.353 1.505 7.992 3.285 1.938 2.125 1.938 2.125 3 5 .244 3.198.016 5.95-1 9-2.21 2.724-4.862 4.431-8 6-3.25.313-3.25.313-7 0-3.391-1.76-5.511-3.381-7.875-6.375C117 82 117 82 116.625 79c.375-3 .375-3 1.563-5.687 3.588-4.579 6.964-5.852 12.82-5.598"/><path fill="#622d3c" d="M923.875 74.563 926 75v5l-2.437.938c-2.454.825-2.454.825-3.563 2.062-.238 2.033-.238 2.033-.25 4.375l-.078 2.398c.177 2.277.177 2.277 1.531 4.079L923 95c2.586.214 2.586.214 5-1 1.56-2.543 1.56-2.543 2.563-5.687C932.308 83.7 933.96 79.878 937 76c2.908-1.454 5.513-1.454 8.734-1.387C948 75 948 75 951.062 77.25c1.556 2.26 1.955 3.868 2.34 6.61.143 4.578-.136 8.343-1.59 12.703-2.036 2.738-3.708 4.04-6.812 5.437h-3c-.312-2.312-.312-2.312 0-5 2.438-1.687 2.438-1.687 5-3 1.163-2.327 1.199-3.847 1.25-6.437l.078-2.372c-.158-2.267-.158-2.267-1.691-3.96L945 80l-2.437-.25L940 81c-1.695 2.851-2.808 5.912-4 9-1.674 3.953-3.076 7.176-6.312 10.063-2.688.937-2.688.937-6.25.874C920 100 920 100 917.625 98.126 916 96 916 96 915 93c-.47-3.742-.55-7.264 0-11 2.073-4.055 4.284-6.739 8.875-7.437M915 284c8.127 2.327 16.104 5.027 24.063 7.875l3.74 1.277 3.545 1.278 3.219 1.132L952 297c.853 2.66.853 2.66 1 5-8.107 3.538-16.35 6.693-24.625 9.813l-3.271 1.24-3.08 1.154-2.784 1.046C917 316 917 316 915 316v-5c6.006-2.892 12.123-5.142 18.438-7.25l2.44-.819C941.741 301 941.741 301 944 301v-2l-2.157-.387c-2.876-.62-5.55-1.46-8.327-2.425l-3.082-1.07L927.25 294l-3.23-1.117c-7.892-2.755-7.892-2.755-9.02-3.883a100 100 0 0 1 0-5"/><path fill="#fefdfd" d="M939 363v12c-3.974-.795-7.498-1.763-11.312-3.062l-3.239-1.098L922 370v-2q3.403-1.259 6.813-2.5l1.947-.723C933.65 363.73 935.9 363 939 363M939 187v12c-5.95-1.208-11.364-2.746-17-5v-2q3.403-1.259 6.813-2.5l1.947-.723C933.65 187.73 935.9 187 939 187"/></svg>