<?xml version="1.0" standalone="no"?>
<!DOCTYPE svg PUBLIC "-//W3C//DTD SVG 1.1//EN" "http://www.w3.org/Graphics/SVG/1.1/DTD/svg11.dtd">
<svg xmlns="http://www.w3.org/2000/svg" width="1000" height="500" viewBox="0 0 1000 500"><path fill="#fff" d="M125.29 259.93c6.234 3.106 10.653 7.442 14.71 13.07 2.805 4.584 3.232 9.058 3.438 14.375-.188 6.261-1.195 11.234-4.438 16.625-5.511 7.489-12.32 12.86-20 18 1.733 4.258 4.758 7.401 7.75 10.813l3.11 3.582 1.552 1.78c2.546 2.927 5.067 5.876 7.588 8.825 2.133-1.845 2.133-1.845 2.816-4.32l.746-2.805c.25-.91.498-1.82.754-2.758.803-3.66 1.22-7.398 1.684-11.117h22c.511 11.249-.504 22.13-5.672 32.285a114 114 0 0 1-3.351 5.383L157 366c.713 3.445 2.146 5.172 4.426 7.867q1.432 1.514 2.887 3.008c3.997 4.144 7.42 8.375 10.687 13.125q-6.27.222-12.543.33-2.131.044-4.262.123c-4.445.158-8.783.224-13.195-.453-2.737-1.799-3.465-3.038-5-6-3.882.63-7.107 1.827-10.687 3.438-10.913 4.598-21.216 5.38-33.008 4.32-8.165-1.287-16.04-5.123-22.68-10.008C68.54 376.423 64.929 370.115 63 363c-.628-6.64-1.013-13.608 1.563-19.875C69.272 334.379 75.753 327.533 84 322h2l-1.562-2.625c-2.165-3.791-4.157-7.667-6.126-11.562l-.937-1.837c-3.071-6.128-3.727-10.922-3.652-17.746.588-6.856 3.106-12.879 6.965-18.543 4.142-5.107 9.417-8.47 15.437-11 9.972-2.384 19.593-2.645 29.164 1.243m-19.54 18.695c-3.065 1.533-4.712 2.61-6.75 5.375-1.167 2.992-1.824 4.886-2 8 1.043 6.324 4.096 11.04 8 16 5.076-1.586 9.02-4.563 13-8 2.153-2.143 2.153-2.143 3-5 .447-3.417.489-6.586 0-10-1.302-3.128-1.302-3.128-4-5-3.939-1.735-7.012-2.19-11.25-1.375M98 336c-3.171 3.203-6.145 6.55-8.437 10.438-1.034 4.708-1.317 9.128.124 13.78 1.649 3.682 3.136 5.638 6.313 8.22 4.478 2.332 8.405 2.897 13.41 2.855 4.767-.54 9.291-2.19 13.59-4.293l1-2c-5.365-6.7-10.88-13.16-16.695-19.473-2.007-2.2-3.95-4.435-5.868-6.714L99 336zM396.25 261.25c7.214 3.221 13.372 7.46 18.363 13.64 2.87 4.367 5.022 9.072 6.387 14.11v9h-27l-2-9c-2.473-3.927-4.412-5.685-8.5-7.875-6.373-2.028-13.46-1.948-19.973-.621-3.413 1.116-5.49 2.458-7.964 5.058-1.924 3.001-2.54 4.133-2.813 7.75.05 3.588.05 3.588 1.313 6.313 2.952 3.619 6.61 6.323 10.86 8.244 2.011.743 4.034 1.417 6.077 2.068q2.257.764 4.512 1.532c1.126.38 1.126.38 2.275.77 12.859 4.425 26.04 9.456 35.526 19.574 3.532 4.578 5.866 9.725 7.687 15.187.56 8.603 1.05 17.07-2.812 24.996-3.84 6.48-8.724 10.354-15.188 14.004-11.116 5.495-22.756 6.73-35.014 6.14-11.694-.82-22.129-4.966-31.986-11.14-6.27-4.57-9.543-10.249-12.871-17.168C321.018 358.535 321 354.895 321 349h27l3 11c1.588 2.87 3.006 4.279 5.625 6.18 5.259 2.978 10.53 3.235 16.438 3.32l2.29.056c5.003-.055 8.607-1.129 13.016-3.485 1.824-1.102 1.824-1.102 3.631-3.259 1.427-4.013 1.546-7.601 1-11.812-1.355-3.507-2.91-4.924-5.805-7.336-5.238-3.672-11.261-5.455-17.257-7.539C342.084 326.079 342.084 326.079 332 315c-3.618-4.61-5.936-9.194-7-15-.672-7.2-.23-13.62 2.566-20.336 3.367-6.256 7.648-10.822 13.57-14.738 16.906-9.195 37.125-10.722 55.114-3.676M544 78h26l1 50 8-7c5.665-3.276 11.511-4.28 18-4.5 6.58.23 12.22 1.267 18 4.5 4.056 2.969 7.03 6.121 9.344 10.602A79 79 0 0 1 627 139l.536 1.696c.64 3.178.583 6.218.578 9.46v2.159c0 2.348-.009 4.696-.016 7.044l-.005 4.893q-.006 6.431-.024 12.863-.014 6.565-.02 13.131-.016 12.878-.049 25.754h-26l-.044-6.147a5612 5612 0 0 0-.192-20.14c-.044-4.07-.084-8.138-.11-12.208q-.041-5.894-.117-11.787a647 647 0 0 1-.035-4.49 587 587 0 0 0-.07-6.305l-.033-3.62c-.45-3.722-1.422-6.13-3.399-9.303-3.76-2.211-6.599-2.962-10.937-3.375-4.278.191-8.395 1.117-12.063 3.375-2.205 2.138-2.205 2.138-4 5-.613 3.283-.613 3.283-.546 6.902l-.031 2.041c-.03 2.213-.031 4.426-.032 6.639a1716.841 1716.841 0 0 0-.129 16.747c-.02 4.13-.062 8.259-.102 12.388-.075 8.094-.123 16.188-.16 24.283h-26zM601 294c5.36 2.508 9.752 5.253 13.438 9.938 3.646 5.407 5.663 10.567 6.562 17.062q.14 2.86.158 5.723l.03 3.34.023 3.57.086 7.57q.063 5.934.104 11.868c.028 3.834.074 7.666.122 11.5l.01 3.533.05 3.396.025 2.933c.58 5.28 2.104 10.415 3.392 15.567h-27l-3-7-1.617 1.207c-6.38 4.537-12.275 7.266-20.11 8.074-7.502.254-13.986-1.117-20.687-4.5-5.101-3.07-8.375-6.533-11.434-11.633-2.902-5.412-3.589-10.109-3.472-16.199.662-6.1 2.867-11.527 6.008-16.762 5.901-5.582 12.415-9.271 20.312-11.187a81 81 0 0 1 11.836-1.316l3.223-.127 3.316-.12 3.387-.13q4.119-.159 8.238-.307a1015 1015 0 0 0-.43-5.312l-.241-2.989c-.234-2.805-.234-2.805-1.454-5.699-2.032-2.168-3.977-3.52-6.777-4.555-4.143-.88-8.033-.575-12.098.555-3.086 2.085-3.086 2.085-5 5l-2 5h-26c.963-7.701 1.862-11.855 6.398-17.848 5.372-5.96 12.36-9.185 19.778-11.968 10.7-2.971 24.583-2.438 34.824 1.816m-31 55c-3.083 1.917-3.083 1.917-5 5-.896 3.377-1.19 6.513-1 10 .866 3.002.866 3.002 3 5 3.417 2.304 5.76 2.977 9.875 3.375 4.451-.212 8.235-1.182 12.125-3.375 2.034-1.324 3.423-2.592 4.945-4.484 2.4-5.724 1.449-12.44 1.055-18.516-12.933-.79-12.933-.79-25 3M766.164 293.742c4.21 1.868 7.503 4.094 10.836 7.258l1.863 1.742c5.823 6.01 8.769 13.078 10.887 21.098 1.752 8.87 1.25 16.88 1.25 26.16h-62c3.287 9.185 3.287 9.185 9 16 4.59 2.576 9.218 4.222 14.5 4.438 5.055-.26 9.836-1.49 14.5-3.438 2.905-2.037 2.905-2.037 5-4h2l1-3c3.716 3.002 7.262 6.106 10.5 9.625l1.531 1.664L788 373c-.102 1.965-.102 1.965-1 4-4.754 5.56-10.54 9.27-17.254 12.035-9.493 3.336-19.121 3.89-29.078 2.5-8.773-1.759-16.04-4.93-23.106-10.433C711.064 375.195 707.1 368.17 704 360c-1.103-4.334-1.687-8.543-2-13-.07-.816-.14-1.632-.21-2.473-.438-10.074 1.621-20.841 5.898-29.964 4.088-7.404 8.99-13.325 16.125-17.938 13.14-7.178 28.32-7.837 42.351-2.883M736 316c-2.302 2.25-3.374 4.082-5 7l-2 9h36c0-6.318-.043-8.188-2.793-13.203-1.721-2.563-3.6-4.167-6.207-5.797-6.878-2.846-14.176-1.216-20 3M709 121c3.375 1.813 3.375 1.813 6 4l1.766 1.457c4.203 3.77 6.436 7.477 8.427 12.724 1.389 4.851 1.37 9.592 1.346 14.608l.036 3.34c.035 3.499.044 6.997.05 10.496q.032 6.895.102 13.79l.033 3.337c.163 10.631 1.493 20.765 3.24 31.248h-26c-2-4-2-4-2-8l-1.504 1.207c-5.853 4.565-11.081 7.542-18.496 8.793-7.44.594-14.11-.045-21-3-5.792-3.009-9.964-6.617-13.809-11.875-2.729-4.868-3.504-9.4-3.566-14.937.085-5.385.652-9.534 3.184-14.297 3.17-5.031 6.592-8.791 11.754-11.723C671.95 155.752 685.48 156.555 700 157q-.19-2.888-.398-5.773l-.225-3.248c-.256-3.18-.256-3.18-2.002-6.604-2.277-2.557-2.277-2.557-5.562-3.812-4.516-.667-8.382-.702-12.813.437-3.01 1.523-3.01 1.523-5 4l-2 6h-26c1.144-10.294 1.144-10.294 4.5-15.09 4.85-6.175 9.43-9.897 16.766-12.91 13.535-4.95 28.454-4.62 41.734 1m-34 54c-2.614 2.681-3.819 4.457-5 8-.273 3.684-.281 6.313 1.125 9.75 1.819 2.403 1.819 2.403 4.625 4.063 3.784 1.382 6.241 1.602 10.25 1.187 4.817-1.207 8.964-3.09 12.776-6.366 1.363-1.589 1.363-1.589 1.704-3.727.11-2.433.045-4.789-.105-7.22l-.082-2.533c-.07-2.052-.178-4.103-.293-6.154-12.944-.813-12.944-.813-25 3M499 294c7.648 3.626 13.734 8.432 18.656 15.316 5.605 8.779 7.941 17.794 8.547 28.157.151 11.561-.968 22.863-6.637 33.152-4.698 7.125-10.313 13.083-17.843 17.191-9.146 3.976-18.841 5.065-28.723 4.184-9.387-1.493-17.111-4.844-24.625-10.625-5.679-5.137-9.772-12.045-12.25-19.25-3.438-11.446-3.76-25.491-1.477-37.207 2.334-8.248 6.455-15.64 12.23-21.98 5.767-5.405 12.678-9.185 20.31-11.25 10.556-1.94 21.737-1.452 31.812 2.312m-30 21c-3.68 3.11-6.172 6.683-7.875 11.188-2.368 9.243-2.262 20.01-.434 29.34 1.399 4.264 3.171 7.696 6.184 11.034 3.17 2.472 5.211 3.64 9.125 4.438 4.726.438 8.708-.035 13.074-1.824 3.655-2.232 5.81-5.523 7.926-9.176 3.254-7.437 3.474-15.984 3-24-.778-6.5-2.317-12.514-6-18-3.037-2.96-5.911-4.859-10-6-5.861-.473-9.778.002-15 3M501.098 119.738c4.418 1.921 8.161 4.236 11.902 7.262l1.86 1.45c6.514 5.72 10.141 13.978 13.023 22.01 2.825 11.343 2.212 25.442-.852 36.618-2.907 8.237-7.096 14.927-13.48 20.914-6.418 5.052-13.842 8.507-21.93 9.762-9.581.9-18.508.559-27.621-2.754-7.063-3.29-13.248-7.791-18-14-5.335-8.913-8.894-17.597-9.3-28.05q-.03-2.632-.012-5.262c.005-.923.01-1.846.017-2.797.19-10.686 2.332-19.225 7.768-28.489 4.106-6.459 8.838-10.65 15.527-14.402 13.184-6.17 27.303-7.122 41.098-2.262M472 141c-3.361 2.698-5.419 5.567-7.04 9.563-2.928 10.074-3.196 21.27-.835 31.5 1.348 4.169 3.078 7.42 6.152 10.562 3.036 2.423 5.889 3.731 9.723 4.375 4.926.175 8.846-.455 13.313-2.562 3.965-3.597 6.515-7.395 8.44-12.395 2.227-8.141 2.168-17.805.712-26.086-1.354-4.892-3.186-9.022-6.465-12.957-3.003-2.267-5.435-3.812-9-5-5.854-.39-9.78.003-15 3M912.16 117.766c4.882 1.655 9.252 3.435 12.84 7.234 4.305 5.225 5.962 10.7 7.396 17.24 1.088 6.77.97 13.507.897 20.342q-.009 2.326-.013 4.653c-.011 4.036-.04 8.071-.074 12.107-.031 4.137-.044 8.273-.06 12.41-.031 8.083-.084 16.165-.146 24.248h-26l-.044-5.932q-.079-9.735-.192-19.47c-.044-3.932-.084-7.864-.11-11.796q-.041-5.7-.117-11.399-.025-2.168-.035-4.334c.033-10.906.033-10.906-3.502-21.069-3.695-2.321-7.197-2.914-11.5-3.375-4.14.443-7.909 1.205-11.5 3.375-2.207 2.138-2.207 2.138-4 5-.613 3.283-.613 3.283-.546 6.902l-.031 2.041c-.03 2.213-.031 4.426-.032 6.639a1716.841 1716.841 0 0 0-.129 16.747c-.02 4.13-.062 8.259-.102 12.388-.075 8.094-.123 16.188-.16 24.283h-26v-97h24l1 1c.455 2.655.702 5.322 1 8l1.582-1.39c10.491-8.746 22.026-12.128 35.578-8.844M809.16 117.766c4.882 1.655 9.252 3.435 12.84 7.234 4.305 5.225 5.962 10.7 7.396 17.24 1.088 6.77.97 13.507.897 20.342q-.009 2.326-.013 4.653c-.011 4.036-.04 8.071-.074 12.107-.031 4.137-.044 8.273-.06 12.41-.031 8.083-.084 16.165-.146 24.248h-26l-.044-5.932q-.079-9.735-.192-19.47c-.044-3.932-.084-7.864-.11-11.796q-.041-5.7-.117-11.399-.025-2.168-.035-4.334c.033-10.906.033-10.906-3.502-21.069-3.695-2.321-7.197-2.914-11.5-3.375-4.14.443-7.909 1.205-11.5 3.375-2.207 2.138-2.207 2.138-4 5-.613 3.283-.613 3.283-.546 6.902l-.031 2.041c-.03 2.213-.031 4.426-.032 6.639a1716.841 1716.841 0 0 0-.129 16.747c-.02 4.13-.062 8.259-.102 12.388-.075 8.094-.123 16.188-.16 24.283h-26v-97h24l1 1c.455 2.655.702 5.322 1 8l1.582-1.39c10.491-8.746 22.026-12.128 35.578-8.844M165 119h26l.028 6.023q.056 9.885.156 19.77c.04 3.992.072 7.985.087 11.978.015 3.858.05 7.716.097 11.574q.023 2.2.024 4.401c-.119 9.303-.119 9.303 2.486 18.121 1.864 3.219 1.864 3.219 4.685 4.696 6.223.792 12.05.332 17.937-1.875 2.641-1.783 3.886-2.957 5.5-5.688.472-3.19.472-3.19.432-6.788l.031-2.041c.03-2.219.04-4.437.049-6.655q.025-2.313.054-4.624c.048-4.05.077-8.102.104-12.152.03-4.136.076-8.272.121-12.408.086-8.11.152-16.221.209-24.332h26v97h-24l-1-1a236 236 0 0 1-1-7l-1.504 1.207c-5.847 4.56-11.085 7.558-18.496 8.793-7.738.57-14.85.177-22-3-5.014-2.713-8.298-6.026-11.375-10.812-3.323-5.542-4.486-11.354-4.799-17.737a634 634 0 0 1-.021-12.861l.008-4.737q.014-6.192.05-12.384c.02-4.223.03-8.447.04-12.67.02-8.267.056-16.533.097-24.799M863 294c5.765 2.706 10.798 5.956 14.75 11.008A44.4 44.4 0 0 1 883 317v5h-26l-4-8c-1.712-2.073-1.712-2.073-4-3-3.103-.475-3.103-.475-6.437-.375l-3.372-.023c-3.219.236-3.219.236-6.007 1.71-2.484 1.644-2.484 1.644-3.684 5.063-.727 3.498-.727 3.498.25 6.313 3.548 3.646 7.42 4.86 12.25 6.312 2.427.607 4.86 1.182 7.295 1.754 10.05 2.362 18.625 4.922 26.643 11.746 3.225 3.91 6.12 7.45 7.062 12.5.399 5.437.43 10.486-1.062 15.75-3.591 6.024-7.672 10.693-13.563 14.563-8.159 4.516-16.7 5.835-25.937 6.062-8.882-.201-17.646-1.761-25.5-6.098-5.85-3.856-10.61-8.044-13.938-14.277-2.227-4.578-2.31-7.48-3-13h25l3 8c2.681 2.614 4.457 3.819 8 5 8.185.639 8.185.639 16.219-.648 1.862-.958 1.862-.958 3.781-3.352 1.33-3.4 1.33-3.4 1-7-1.49-2.704-1.49-2.704-4-5-2.523-1.07-4.758-1.86-7.375-2.562l-2.135-.626c-3.42-.993-6.856-1.907-10.303-2.804-8.685-2.305-15.83-4.988-22.507-11.149-3.183-3.353-5.404-6.192-7.18-10.484-.942-6.355-.652-11.712 1.336-17.816 2.492-5.478 6.481-9.592 11.3-13.125 13.676-8.225 32.038-9.109 46.864-3.434M69 85h27v109h57v22H69zM336 95h26v24h17v19h-17q.141 11 .317 21.997.058 3.743.105 7.484c.046 3.585.104 7.17.164 10.753l.035 3.385.06 3.153.04 2.773c.297 2.61.873 4.247 2.279 6.455 2.833 1.416 5.475 1.346 8.625 1.563L380 196v19c-6.204 3.102-12.054 3.3-18.906 3.207-5.72-.383-10.566-1.54-15.387-4.719-3.292-2.668-5.88-5.226-7.644-9.113-1.534-4.872-2.188-9.158-2.177-14.267v-3.518l.016-3.766.005-3.88q.006-5.086.024-10.174.014-5.199.02-10.397.017-10.186.049-20.373h-14v-19h14zM274 95h26v24h17q.04 4.469.063 8.938l.025 2.576.01 2.45.016 2.27L317 137l-1 1c-2.697.073-5.367.092-8.062.063l-2.3-.014q-2.818-.02-5.638-.049.177 11.213.372 22.424.065 3.816.125 7.63.088 5.481.187 10.962l.05 3.45.06 3.215.048 2.826c.1 2.775.1 2.775 1.158 6.493l15 1v20c-9.177 2.04-17.07 3.222-26.25.938-4.33-1.504-7.68-3.562-10.932-6.8-3.097-3.642-4.592-7.542-5.818-12.138-.504-4.712-.468-9.367-.39-14.102l.017-3.992c.015-3.47.054-6.938.098-10.406.042-3.554.06-7.107.08-10.66.042-6.947.113-13.893.195-20.84h-14v-19h14z"/><path fill="#fff" d="M394 119h27q.07 19.808.104 39.615.014 9.199.047 18.398.032 8.89.039 17.779.004 3.38.021 6.758c.143 30.766.143 30.766-5.746 41.298-2.943 4.324-6.174 6.886-10.727 9.402-8.546 3.77-17.592 3.303-26.738 2.75l-4-1v-21l8.887.195c3.22-.202 5.299-.628 8.113-2.195 1.319-2.106 1.965-3.706 2.262-6.179l.016-2.402.034-2.77.007-3.017.03-3.194c.031-3.485.048-6.969.065-10.454q.028-3.623.059-7.247c.051-6.359.09-12.717.128-19.076.04-6.489.091-12.977.141-19.466.097-12.731.18-25.463.258-38.195M693 291l3 2c.249 2.43.249 2.43.074 5.445l-.166 3.262-.22 3.418-.186 3.441A885 885 0 0 1 695 317l-3.437.078c-9.513.098-9.513.098-18.5 2.797-3.212 1.95-3.212 1.95-5.063 5.125-.33 2.932-.33 2.932-.319 6.307l-.06 3.943-.035 4.262q-.028 2.18-.059 4.359c-.051 3.822-.09 7.644-.128 11.467-.04 3.9-.091 7.802-.141 11.703-.097 7.653-.18 15.306-.258 22.959h-27v-97h25l2 9 2.438-3.25c2.986-3.44 5.821-5.425 10.05-7.098 4.457-1.157 8.958-1.294 13.512-.652"/><path fill="#5b2333" d="M919.715 363.504c3.521.764 5.624 2.088 8.285 4.496 1.815 3.044 2.901 5.456 3.129 9.02-.185 2.929-.677 5.192-2.145 7.75-1.82 2.366-3.736 4.082-6.297 5.605-3.615.84-7.016 1.087-10.687.625-3.503-1.28-5.61-2.632-8.312-5.187-1.75-2.916-2.525-5.358-2.782-8.758.164-3.59 1.27-5.996 3.094-9.055 5.35-4.236 9.109-5.366 15.715-4.496"/><path fill="#fff" d="M410 80c3.927 1.265 6.416 2.432 9.375 5.313 1.877 3.104 2.48 5.062 2.625 8.687-.562 3.563-.562 3.563-2 7-2.329 2.523-4.917 4.458-8 6-4.655.435-8.882.331-13.375-1-3.05-2.324-4.47-4.33-5.992-7.816-.858-2.96-.896-5.278-.309-8.293 1.235-3.456 3.01-5.347 5.676-7.891 3.96-2.293 7.481-2.39 12-2M189 82c2.813 1.313 2.813 1.313 5 3l1.75 1.188c1.675 2.428 2.118 4.84 2.375 7.75C198 96 198 96 196.438 99.312 194 102 194 102 191.313 103.939c-3.734 1.197-6.347 1.291-10.192.714C179 104 179 104 176 101.562 174 99 174 99 173 97c-.235-2.864-.393-5.194 0-8 1.67-2.744 3.2-4.4 5.75-6.312 3.424-1.047 6.728-1.151 10.25-.688M231.043 81.621C233 82 233 82 236.313 83.563 239 86 239 86 241 89.313c1 3.687 1 3.687.5 7.374-1.5 3.313-1.5 3.313-3.562 5.688-3.344 1.85-5.939 2.462-9.723 2.727-2.215-.102-2.215-.102-5.59-1.29-2.61-1.802-4.085-3.057-5.625-5.812-.875-2.312-.875-2.312-1-5 1.063-3.562 1.063-3.562 3-7 3.831-3.475 6.976-4.68 12.043-4.379"/></svg>